<svg width="139" height="29" viewBox="0 0 139 29" fill="none" xmlns="http://www.w3.org/2000/svg">
<path d="M0 4.34216L6.24441 13.3701H0V28.3172H6.78559V0.594727H0V4.34216Z" fill="#E04F39"/>
<path d="M28.8901 13.627C31.596 12.6476 32.9282 10.6461 32.9282 7.62261C32.9282 5.28047 32.0956 3.53451 30.472 2.34214C28.8485 1.19236 26.4756 0.596182 23.4367 0.596182H11.5306V21.0367L16.9425 28.3612H22.9787C24.3941 28.3612 25.7263 28.2335 26.8919 28.0206C28.0992 27.7651 29.2648 27.3818 30.3888 26.8282C31.5128 26.2746 32.387 25.4655 33.0531 24.4009C33.7191 23.3363 34.0105 22.0587 34.0105 20.5257C34.0105 16.9486 32.3037 14.649 28.8901 13.627ZM18.3579 6.34508H22.7706C23.6864 6.34508 24.4358 6.558 24.9769 7.02643C25.5181 7.49486 25.7679 8.13363 25.7679 8.90015C25.7679 9.70925 25.5181 10.3054 24.9769 10.7739C24.4358 11.2423 23.7281 11.4552 22.7706 11.4552L18.3579 11.4126V6.34508ZM23.2285 22.6123H18.3162V16.8209H23.1869C25.6014 16.8209 26.8086 17.8003 26.8086 19.7166C26.8086 21.6329 25.6014 22.6123 23.2285 22.6123ZM56.3655 19.674L55.0334 17.7151C57.7809 16.1821 59.4461 13.5844 59.4461 9.92217C59.4461 8.17621 59.1547 6.68576 58.5303 5.40822C57.9058 4.13069 57.0316 3.15125 55.9493 2.51248C54.8669 1.83113 53.6596 1.3627 52.4108 1.06461C51.1619 0.76652 49.7881 0.596182 48.3311 0.596182H37.2993V4.34361L43.5437 13.3715H37.2993V28.3612H44.0849V14.138L50.7039 23.7195C52.0777 25.4229 54.0759 28.3186 59.8208 28.3186V21.42C57.8642 21.42 57.0316 20.696 56.3655 19.674ZM51.6614 12.5198C51.037 13.0734 50.2044 13.3715 49.122 13.3715H44.0849V6.94126H49.122C50.1628 6.94126 51.037 7.23935 51.6614 7.79295C52.2859 8.34655 52.5773 9.15565 52.5773 10.1777C52.5773 11.1997 52.2859 11.9662 51.6614 12.5198ZM132.214 0.596182V13.3715H122.14V0.596182H115.354V4.30103L121.599 13.3289H115.354V28.3186H122.14V14.138L126.136 19.9295H132.214V28.3612H139V0.596182H132.214ZM80.7188 17.3319C80.7188 20.696 79.0536 22.3568 75.6816 22.3568C72.3096 22.3568 70.6444 20.696 70.6444 17.3319V0.596182H63.8588V17.7577C63.8588 19.7592 64.1919 21.5051 64.8996 22.9956C65.6073 24.486 66.5231 25.6358 67.7304 26.4875C68.9376 27.3392 70.2282 27.9354 71.6019 28.3186C72.9757 28.7019 74.0997 28.9148 75.6816 28.9148C77.2635 28.9148 78.7206 28.7019 80.136 28.3186C81.5097 27.9354 82.4256 27.2966 83.6328 26.4875C84.8401 25.6358 85.7559 24.486 86.4636 22.9956C87.1713 21.5051 87.5044 19.7592 87.5044 17.7577V0.596182H80.7188V17.3319ZM108.236 13.6696C107.195 13.0308 105.53 12.4772 104.323 11.9662C103.115 11.4552 101.991 11.0294 100.951 10.7313C99.91 10.4332 99.0357 10.0499 98.328 9.62408C97.6203 9.19824 97.2873 8.68722 97.2873 8.13363C97.2873 6.98385 98.9525 6.04699 101.284 6.00441C104.656 5.96182 107.487 6.81351 109.818 8.60206V2.21439C107.195 0.723935 104.198 0 100.659 0C97.7036 0 95.2475 0.681351 93.3325 2.08664C91.4175 3.49192 90.4601 5.49339 90.4601 8.13363C90.4601 9.96476 90.9596 11.4978 91.9171 12.8179C92.8746 14.0954 94.0402 15.0749 95.4556 15.7137C96.8294 16.3524 98.7027 16.906 100.076 17.3744C101.45 17.8429 102.616 18.3113 103.615 18.8649C104.572 19.3759 105.072 20.0147 105.072 20.7386C105.072 21.42 104.781 22.1439 104.156 22.442C103.532 22.7401 102.491 22.8678 101.076 22.8678C97.4538 22.8678 93.7072 21.8458 90.7515 19.7592V26.4449C93.7488 28.1483 97.204 29 101.159 29C108.402 29 111.982 26.1894 111.982 20.5257C111.982 18.9927 111.649 17.63 110.942 16.4802C110.151 15.2026 109.277 14.3084 108.236 13.6696Z" fill="black"/>
</svg>
